<?xml version="1.0" encoding="iso-8859-1"?>
<!-- Generator: Adobe Illustrator 19.0.0, SVG Export Plug-In . SVG Version: 6.00 Build 0)  -->
<svg version="1.1" id="Capa_1" xmlns="http://www.w3.org/2000/svg" xmlns:xlink="http://www.w3.org/1999/xlink" x="0px" y="0px"
	 viewBox="0 0 511.537 511.537" style="enable-background:new 0 0 511.537 511.537;" xml:space="preserve">
<g>
	<g>
		<path d="M441.239,121.222c-14.251-39.083-42.155-75.691-67.328-70.485H272.193C267.22,18.124,236.75-4.282,204.137,0.691
			c-25.833,3.939-46.106,24.213-50.046,50.046H68.076c-4.713,0-8.533,3.82-8.533,8.533s3.82,8.533,8.533,8.533h85.333v27.051
			c-53.978,8.404-93.803,54.855-93.867,109.483v8.533h42.667v-34.133c0-4.713,3.821-8.533,8.533-8.533
			c4.713,0,8.533,3.82,8.533,8.533v34.133h17.067v-34.133c0-4.713,3.82-8.533,8.533-8.533s8.533,3.82,8.533,8.533v34.133h17.067
			v-34.133c0-4.713,3.82-8.533,8.533-8.533s8.533,3.82,8.533,8.533v34.133h17.067v-34.133c0-4.713,3.82-8.533,8.533-8.533
			s8.533,3.82,8.533,8.533v34.133h17.067v-34.133c0-4.713,3.82-8.533,8.533-8.533s8.533,3.82,8.533,8.533v34.133h17.067v-34.133
			c0-4.713,3.82-8.533,8.533-8.533s8.533,3.82,8.533,8.533v34.133h17.067v-34.133c0-4.713,3.82-8.533,8.533-8.533
			s8.533,3.82,8.533,8.533v34.133h42.667v-8.533c-0.064-54.628-39.889-101.078-93.867-109.483V67.803h82.005
			c-8.533,19.883-4.523,53.163,6.144,82.603c13.312,36.864,38.656,70.997,62.464,70.997c2.909,0.038,5.8-0.453,8.533-1.451
			C457.793,210.481,456.087,161.67,441.239,121.222z M425.964,204.337c-9.813,3.584-34.133-17.835-48.896-59.733
			c-14.763-41.899-10.325-73.387-0.768-76.8c0.763-0.129,1.541-0.129,2.304,0c10.837,0,32.512,21.163,46.507,59.733
			C440.385,168.667,435.777,200.411,425.964,204.337z"/>
	</g>
</g>
<g>
	<g>
		<path d="M59.543,229.937v153.6h307.2v-153.6H59.543z M327.404,350.171c4.289,1.979,6.161,7.061,4.181,11.349
			s-7.061,6.161-11.349,4.181l-107.093-49.579l-107.349,49.579c-4.289,1.979-9.37,0.107-11.349-4.181
			c-1.979-4.289-0.107-9.37,4.181-11.349l93.867-43.435l-93.867-43.435c-4.289-1.979-6.161-7.061-4.181-11.349
			c1.979-4.289,7.061-6.161,11.349-4.181l107.349,49.579l107.349-49.579c4.289-1.979,9.37-0.107,11.349,4.181
			c1.979,4.289,0.107,9.37-4.181,11.349l-94.123,43.435L327.404,350.171z"/>
	</g>
</g>
<g>
	<g>
		<path d="M324.076,400.603v34.133c0,4.713-3.82,8.533-8.533,8.533s-8.533-3.82-8.533-8.533v-34.133h-17.067v34.133
			c0,4.713-3.82,8.533-8.533,8.533s-8.533-3.82-8.533-8.533v-34.133h-17.067v34.133c0,4.713-3.82,8.533-8.533,8.533
			s-8.533-3.82-8.533-8.533v-34.133h-17.067v34.133c0,4.713-3.82,8.533-8.533,8.533s-8.533-3.82-8.533-8.533v-34.133h-17.067v34.133
			c0,4.713-3.82,8.533-8.533,8.533s-8.533-3.82-8.533-8.533v-34.133h-17.067v34.133c0,4.713-3.82,8.533-8.533,8.533
			s-8.533-3.82-8.533-8.533v-34.133h-17.067v34.133c0,4.713-3.821,8.533-8.533,8.533c-4.713,0-8.533-3.82-8.533-8.533v-34.133
			H59.543c0,61.267,49.667,110.933,110.933,110.933h85.333c61.267,0,110.933-49.667,110.933-110.933H324.076z"/>
	</g>
</g>
<g>
</g>
<g>
</g>
<g>
</g>
<g>
</g>
<g>
</g>
<g>
</g>
<g>
</g>
<g>
</g>
<g>
</g>
<g>
</g>
<g>
</g>
<g>
</g>
<g>
</g>
<g>
</g>
<g>
</g>
</svg>
